<svg width="342" height="63" viewBox="0 0 342 63" fill="none" xmlns="http://www.w3.org/2000/svg">
<path d="M0.50582 56.23C1.34582 50.77 1.82582 40.69 1.94582 25.99C1.94582 15.49 1.55582 7.33 0.775821 1.51C4.55582 0.789997 9.38582 0.429997 15.2658 0.429997C20.1258 0.429997 24.4758 0.939997 28.3158 1.96C32.2158 2.98 35.7558 4.63 38.9358 6.91C42.1758 9.13 44.6658 12.28 46.4058 16.36C48.2058 20.44 49.1058 25.33 49.1058 31.03C49.1058 40.03 46.6158 47.44 41.6358 53.26C36.6558 59.02 29.5458 61.9 20.3058 61.9C11.7858 61.9 5.18582 60.01 0.50582 56.23ZM10.9458 7.72C11.1858 11.62 11.3058 16.21 11.3058 21.49C11.3058 33.91 10.8858 43.93 10.0458 51.55C12.9258 53.65 16.4958 54.7 20.7558 54.7C24.1158 54.7 27.0258 54.04 29.4858 52.72C31.9458 51.34 33.8058 49.54 35.0658 47.32C36.3858 45.04 37.3458 42.7 37.9458 40.3C38.5458 37.84 38.8458 35.29 38.8458 32.65C38.8458 24.25 36.8658 17.95 32.9058 13.75C29.0058 9.49 23.3958 7.36 16.0758 7.36C14.9358 7.36 13.2258 7.48 10.9458 7.72ZM86.5184 36.34C85.6184 33.88 84.7184 31.33 83.8184 28.69C82.9784 25.99 82.0784 23.11 81.1184 20.05C80.1584 16.99 79.4984 14.89 79.1384 13.75C76.2584 22.81 73.6184 30.31 71.2184 36.25C75.0584 36.37 77.9984 36.43 80.0384 36.43C83.1584 36.43 85.3184 36.4 86.5184 36.34ZM78.1484 43.09C76.5884 43.09 73.3484 43.03 68.4284 42.91C64.5284 52.93 62.1284 59.59 61.2284 62.89C55.8884 62.29 53.2184 61.06 53.2184 59.2C53.2184 58.36 54.4784 54.97 56.9984 49.03C59.5784 43.03 62.6984 35.41 66.3584 26.17C70.0184 16.93 72.8984 8.74 74.9984 1.6C76.1984 1.42 77.7584 1.33 79.6784 1.33C81.2384 1.33 82.4384 1.66 83.2784 2.32C84.1784 2.92 84.9584 4.18 85.6184 6.1C90.2384 20.5 93.5984 30.4 95.6984 35.8C100.198 47.5 103.588 55.6 105.868 60.1C103.588 61.3 101.668 61.9 100.108 61.9C97.5884 61.9 95.8484 61.09 94.8884 59.47C94.1684 57.61 93.1484 54.88 91.8284 51.28C90.5684 47.62 89.5784 44.83 88.8584 42.91C82.9784 43.03 79.4084 43.09 78.1484 43.09ZM168.98 21.76V42.73C168.98 50.83 169.55 56.77 170.69 60.55C169.85 61.03 168.23 61.27 165.83 61.27C163.37 61.27 161.72 60.88 160.88 60.1C160.04 59.32 159.62 58 159.62 56.14V15.64C155.66 25.48 150.62 40.54 144.5 60.82C143.54 61.06 142.43 61.18 141.17 61.18C138.05 61.18 136.13 60.4 135.41 58.84C133.61 54.88 130.94 47.8 127.4 37.6C123.86 27.34 121.19 19.96 119.39 15.46V42.73C119.39 50.83 119.96 56.77 121.1 60.55C119.48 61.03 117.92 61.27 116.42 61.27C114.32 61.27 112.88 60.88 112.1 60.1C111.38 59.32 111.02 58 111.02 56.14C111.02 55.18 111.05 52.81 111.11 49.03C111.17 45.25 111.2 42.31 111.2 40.21V17.53C111.2 10.81 110.63 5.53 109.49 1.69C111.89 1.21 114.02 0.969995 115.88 0.969995C119.3 0.969995 121.91 2.41 123.71 5.29C125.99 8.95 128.21 13.54 130.37 19.06C132.59 24.52 134.27 29.14 135.41 32.92C136.61 36.7 138.26 42.13 140.36 49.21C145.4 30.25 150.98 15.55 157.1 5.11C158.66 2.35 161.21 0.969995 164.75 0.969995C167.09 0.969995 169.04 1.21 170.6 1.69C169.52 5.29 168.98 11.98 168.98 21.76ZM196.429 7.36C195.289 7.36 193.639 7.48 191.479 7.72C191.719 12.28 191.839 18.37 191.839 25.99C193.399 26.11 194.749 26.17 195.889 26.17C204.889 26.17 209.389 23.08 209.389 16.9C209.389 10.54 205.069 7.36 196.429 7.36ZM200.029 54.97C203.269 54.97 205.999 53.98 208.219 52C210.439 49.96 211.549 47.2 211.549 43.72C211.549 39.82 210.319 36.85 207.859 34.81C205.459 32.77 202.459 31.75 198.859 31.75C195.619 31.75 193.249 31.9 191.749 32.2C191.749 34.78 191.599 38.32 191.299 42.82C191.059 47.32 190.819 50.29 190.579 51.73C191.539 52.63 192.919 53.41 194.719 54.07C196.579 54.67 198.349 54.97 200.029 54.97ZM181.039 56.23C181.999 49.39 182.479 39.37 182.479 26.17C182.479 15.01 182.089 6.79 181.309 1.51C185.929 0.789997 190.939 0.429997 196.339 0.429997C203.179 0.429997 208.759 1.63 213.079 4.03C217.459 6.43 219.649 10.39 219.649 15.91C219.649 21.91 217.039 26.08 211.819 28.42C218.479 31.24 221.809 36.37 221.809 43.81C221.809 49.51 219.859 53.95 215.959 57.13C212.119 60.31 207.409 61.9 201.829 61.9C192.769 61.9 185.839 60.01 181.039 56.23ZM257.342 61.9C248.702 61.9 241.802 59.11 236.642 53.53C231.542 47.95 228.992 40.51 228.992 31.21C228.992 21.79 231.542 14.32 236.642 8.8C241.802 3.22 248.702 0.429997 257.342 0.429997C266.102 0.429997 273.062 3.22 278.222 8.8C283.382 14.32 285.962 21.79 285.962 31.21C285.962 40.51 283.352 47.95 278.132 53.53C272.972 59.11 266.042 61.9 257.342 61.9ZM275.702 32.74C275.702 28.42 275.132 24.46 273.992 20.86C272.912 17.2 270.932 14.08 268.052 11.5C265.232 8.86 261.722 7.54 257.522 7.54C251.942 7.54 247.502 9.52 244.202 13.48C240.902 17.38 239.252 22.42 239.252 28.6C239.252 33.1 239.792 37.24 240.872 41.02C242.012 44.8 243.992 48.04 246.812 50.74C249.692 53.44 253.232 54.79 257.432 54.79C263.252 54.79 267.752 52.75 270.932 48.67C274.112 44.59 275.702 39.28 275.702 32.74ZM341.026 53.35C341.026 55.51 339.226 57.49 335.626 59.29C332.086 61.03 327.706 61.9 322.486 61.9C313.726 61.9 306.676 59.08 301.336 53.44C296.056 47.74 293.416 40.3 293.416 31.12C293.416 21.52 296.056 14.02 301.336 8.62C306.676 3.16 313.876 0.429997 322.936 0.429997C327.796 0.429997 331.876 1.39 335.176 3.31C338.476 5.17 340.126 7.48 340.126 10.24C340.126 13.42 337.756 15.4 333.016 16.18C331.996 13.3 330.376 11.14 328.156 9.7C325.936 8.26 323.566 7.54 321.046 7.54C315.946 7.54 311.776 9.64 308.536 13.84C305.296 17.98 303.676 23.17 303.676 29.41C303.676 36.67 305.266 42.73 308.446 47.59C311.626 52.39 316.036 54.79 321.676 54.79C325.816 54.79 329.206 53.83 331.846 51.91C331.726 44.23 331.516 37.93 331.216 33.01C332.596 32.83 334.066 32.74 335.626 32.74C339.646 32.74 341.656 33.85 341.656 36.07L341.296 42.19C341.116 46.27 341.026 49.99 341.026 53.35Z" fill="#D7B586"/>
</svg>
